# AST/ASF file generated using VICON BodyLanguage
# -----------------------------------------------
:version 1.10
:name VICON
:units
  mass 1.0
  length 0.45
  angle deg
:documentation
   .ast/.asf automatically generated from VICON data using
   VICON BodyBuilder and BodyLanguage model FoxedUp or BRILLIANT.MOD
:root
   order TX TY TZ RX RY RZ
   axis XYZ
   position 0 0 0  
   orientation 0 0 0 
:bonedata
  begin
     id 1 
     name lhipjoint
     direction 0.710188 -0.616876 0.339259 
     length 2.5669 
     axis 0 0 0  XYZ
  end
  begin
     id 2 
     name lfemur
     direction 0.34202 -0.939693 0  
     length 7.12796  
     axis 0 0 20  XYZ
    dof rx ry rz
    limits (-160.0 20.0)
           (-70.0 70.0)
           (-60.0 70.0)
  end
  begin
     id 3 
     name ltibia
     direction 0.34202 -0.939693 0   
     length 7.58108   
     axis 0 0 20   XYZ
    dof rx
    limits (-10.0 170.0)
  end
  begin
     id 4 
     name lfoot
     direction 0.0669471 -0.183936 0.980656   
     length 2.17365   
     axis -90 7.62852e-016 20   XYZ
    dof rx rz
    limits (-45.0 90.0)
           (-70.0 20.0)
  end
  begin
     id 5 
     name ltoes
     direction 1.53508e-011 -4.21705e-011 1   
     length 1.09427   
     axis -90 7.62852e-016 20   XYZ
    dof rx
    limits (-90.0 20.0)
  end
  begin
     id 6 
     name rhipjoint
     direction -0.700191 -0.625589 0.34405   
     length 2.53115  
     axis 0 0 0  XYZ 
  end
  begin
     id 7 
     name rfemur
     direction -0.34202 -0.939693 0   
     length 7.33006   
     axis 0 0 -20   XYZ
    dof rx ry rz
    limits (-160.0 20.0)
           (-70.0 70.0)
           (-70.0 60.0)
  end
  begin
     id 8 
     name rtibia
     direction -0.34202 -0.939693 0   
     length 7.64926   
     axis 0 0 -20   XYZ
    dof rx
    limits (-10.0 170.0)
 end
 begin
     id 9 
     name rfoot
     direction -0.0688927 -0.189281 0.979503   
     length 2.20493  
     axis -90 -7.62852e-016 -20   XYZ
    dof rx rz
    limits (-45.0 90.0)
           (-20.0 70.0)
  end
  begin
     id 10 
     name rtoes
     direction -1.53567e-011 -4.21933e-011 1   
     length 1.10919   
     axis -90 -7.62852e-016 -20   XYZ
    dof rx
    limits (-90.0 20.0)
  end
  begin
     id 11 
     name lowerback
     direction -0.0167868 0.989873 -0.140959   
     length 2.14596   
     axis 0 0 0   XYZ
    dof rx ry rz
    limits (-20.0 45.0)
           (-30.0 30.0)
           (-30.0 30.0)
  end
  begin
     id 12 
     name upperback
     direction 0.0129109 0.998033 0.0613525   
     length 2.10457   
     axis 0 0 0   XYZ
    dof rx ry rz
    limits (-20.0 45.0)
           (-30.0 30.0)
           (-30.0 30.0)
  end
  begin
     id 13 
     name thorax
     direction 0.0177047 0.991119 0.131797   
     length 2.17652   
     axis 0 0 0   XYZ
    dof rx ry rz
    limits (-20.0 45.0)
           (-30.0 30.0)
           (-30.0 30.0)
  end
  begin
     id 14 
     name lowerneck
     direction -0.0336893 0.997548 0.0613464   
     length 1.8912   
     axis 0 0 0   XYZ
    dof rx ry rz
    limits (-20.0 45.0)
           (-30.0 30.0)
           (-30.0 30.0)
  end
  begin
     id 15 
     name upperneck
     direction 0.0435909 0.997179 -0.0611028   
     length 1.8829   
     axis 0 0 0   XYZ
    dof rx ry rz
    limits (-20.0 45.0)
           (-30.0 30.0)
           (-30.0 30.0)
  end
  begin
     id 16
     name head
     direction 0.0175076 0.999444 -0.0283782  
     length 1.93197  
     axis 0 0 0   XYZ
    dof rx ry rz
    limits (-20.0 45.0)
           (-30.0 30.0)
           (-30.0 30.0)
  end
  begin
     id 17 
     name lclavicle
     direction 0.919164 0.389875 0.0559876  
     length 3.60004  
     axis 0 0 0   XYZ
    dof ry rz
    limits (-20.0 10.0)
           (0.0 20.0)
  end
  begin
     id 18 
     name lhumerus
     direction 1 -4.48958e-011 6.89191e-027   
     length 5.43301   
     axis 180 -30 -90   XYZ
    dof rx ry rz
    limits (-60.0 90.0)
           (-90.0 90.0)
           (-90.0 90.0)
  end
  begin
     id 19
     name lradius
     direction 1 -4.4897e-011 3.24727e-027   
     length 3.15936   
     axis 180 -30 -90   XYZ
    dof rx
    limits (-10.0 170.0)
  end
  begin
     id 20
     name lwrist
     direction 1 -4.4897e-011 9.00228e-027   
     length 1.57968   
     axis -6.29373e-015 90 90   XYZ
    dof ry
    limits (-180.0 0.0)
 end
  begin
     id 21 
     name lhand
     direction 1 -4.48968e-011 1.80042e-026   
     length 0.712827   
     axis -1.14882e-014 90 90   XYZ
    dof rx rz
    limits (-90.0 90.0)
           (-45.0 45.0)
  end
  begin
     id 22 
     name lfingers
     direction 1 -4.49019e-011 3.60267e-026   
     length 0.574699   
     axis -2.29769e-014 90 90   XYZ
    dof rx
    limits (0.0 90.0)
  end
  begin
     id 23
     name lthumb
     direction 0.707107 -6.3498e-011 0.707107   
     length 0.825157   
     axis -90 45 5.37419e-014   XYZ
    dof rx rz
    limits (-45.0 45.0)
           (-45.0 45.0)
  end
  begin
     id 24 
     name rclavicle
     direction -0.890334 0.455305 -0.00132111   
     length 3.51494  
     axis 0 0 0   XYZ 
    dof ry rz
    limits (-10.0 20.0)
           (-20.0 0.0)
  end
  begin
     id 25 
     name rhumerus
     direction -1 -4.48967e-011 5.07175e-028  
     length 5.34194   
     axis 180 30 90   XYZ
    dof rx ry rz
    limits (-90.0 60.0)
           (-90.0 90.0)
           (-90.0 90.0)
  end
  begin
     id 26 
     name rradius
     direction -1 -4.48955e-011 3.30467e-027   
     length 3.19351   
     axis 180 30 90   XYZ
    dof rx
    limits (-10.0 170.0)
  end
  begin
     id 27 
     name rwrist
     direction -1 -4.48968e-011 9.00208e-027   
     length 1.59676   
     axis -6.29373e-015 -90 -90   XYZ
    dof ry
    limits (-180.0 0.0)
  end
  begin
     id 28
     name rhand
     direction -1 -4.49e-011 1.80099e-026   
     length 0.743862   
     axis -1.14882e-014 -90 -90   XYZ
    dof rx rz
    limits (-90.0 90.0)
           (-45.0 45.0)
  end
  begin
     id 29
     name rfingers
     direction -1 -4.49009e-011 3.6023e-026   
     length 0.599721   
     axis -2.29769e-014 -90 -90   XYZ
    dof rx
    limits (0.0 90.0)
  end
  begin
     id 30
     name rthumb
     direction -0.707107 -6.35025e-011 0.707107   
     length 0.861083   
     axis -90 -45 -5.37419e-014   XYZ
    dof rx rz
    limits (-45.0 45.0)
           (-45.0 45.0)
  end
:hierarchy
  begin
    root lhipjoint rhipjoint lowerback
    lhipjoint lfemur
    lfemur ltibia
    ltibia lfoot
    lfoot ltoes
    rhipjoint rfemur
    rfemur rtibia
    rtibia rfoot
    rfoot rtoes
    lowerback upperback
    upperback thorax
    thorax lowerneck lclavicle rclavicle
    lowerneck upperneck
    upperneck head
    lclavicle lhumerus
    lhumerus lradius
    lradius lwrist
    lwrist lhand lthumb
    lhand lfingers
    rclavicle rhumerus
    rhumerus rradius
    rradius rwrist
    rwrist rhand rthumb
    rhand rfingers
  end

#!OML:ASF H:\Martial Arts Walks\Project 1\Capture day 1\Session 1\male.ASF
:FULLY-SPECIFIED
:DEGREES
326
root -7.58953 16.0497 -23.8198 3.30343 1.28034 0.0336121
lowerback 6.05013 5.68584 -2.77939
upperback -3.22998 7.32724 -0.600723
thorax -7.03491 3.71351 0.0159631
lowerneck -4.58014 -7.71005 -8.78294
upperneck 13.4563 -10.4553 6.21065
head 5.60092 -5.16695 2.65736
rclavicle -3.09429e-014 1.15295e-014
rhumerus -65.6963 84.2601 -144.294
rradius 86.829
rwrist -2.1858
rhand -19.1962 -12.9915
rfingers 7.12502
rthumb 7.11573 -42.8519
lclavicle -3.09429e-014 1.15295e-014
lhumerus -74.3655 -32.7431 107.905
lradius 102.354
lwrist 0.313889
lhand -39.6489 35.1133
lfingers 7.12502
lthumb -12.6293 64.7115
rfemur -27.5458 1.81976 25.369
rtibia 58.2483
rfoot -28.3338 -1.68403
rtoes 8.47446
lfemur -25.9718 -4.92871 -25.3504
ltibia 54.4426
lfoot -27.0504 9.05204
ltoes 3.0911
327
root -7.58693 16.046 -23.8163 3.31147 1.2424 0.0810926
lowerback 6.03821 5.6919 -2.81188
upperback -3.22665 7.33191 -0.615639
thorax -7.02695 3.71691 0.0190029
lowerneck -4.61267 -7.7147 -8.84116
upperneck 13.5064 -10.4618 6.25116
head 5.62791 -5.16962 2.67647
rclavicle 9.12779e-014 -4.37326e-015
rhumerus -66.0707 84.2318 -144.673
rradius 86.8497
rwrist -2.47147
rhand -19.1509 -12.9694
rfingers 7.12502
rthumb 7.15952 -42.8283
lclavicle 9.12779e-014 -4.37326e-015
lhumerus -74.3716 -32.6986 107.921
lradius 102.283
lwrist 0.289339
lhand -39.7287 35.0591
lfingers 7.12502
lthumb -12.7062 64.6526
rfemur -27.5752 1.8422 25.3053
rtibia 58.3156
rfoot -28.3717 -1.65934
rtoes 8.56727
lfemur -25.9858 -4.87406 -25.4155
ltibia 54.481
lfoot -27.0845 9.04166
ltoes 3.13522
328
root -7.58475 16.0425 -23.8134 3.3138 1.22589 0.0884703
lowerback 6.04063 5.71207 -2.79683
upperback -3.23775 7.35885 -0.635165
thorax -7.03641 3.72902 -0.0138026
lowerneck -4.54486 -7.72924 -8.8406
upperneck 13.4886 -10.4904 6.28049
head 5.61453 -5.18321 2.68602
rclavicle -3.81115e-014 -7.95139e-016
rhumerus -65.9168 84.1339 -144.521
rradius 86.8587
rwrist -2.60317
rhand -19.0746 -12.9682
rfingers 7.12502
rthumb 7.2331 -42.8246
lclavicle -3.81115e-014 -7.95139e-016
lhumerus -74.4575 -32.7017 107.948
lradius 102.269
lwrist 0.198064
lhand -39.7599 35.0467
lfingers 7.12502
lthumb -12.7363 64.6383
rfemur -27.5965 1.8386 25.291
rtibia 58.3771
rfoot -28.4087 -1.69447
rtoes 8.45256
lfemur -25.9993 -4.8313 -25.4344
ltibia 54.526
lfoot -27.12 9.02605
ltoes 3.12728
329
root -7.58227 16.0391 -23.8105 3.34021 1.19822 0.0876997
lowerback 6.01545 5.72876 -2.77593
upperback -3.24829 7.38338 -0.643232
thorax -7.0301 3.74015 -0.0345411
lowerneck -4.52621 -7.74636 -8.80732
upperneck 13.4949 -10.5099 6.22036
head 5.60996 -5.1951 2.66116
rclavicle 9.52621e-014 1.63003e-014
rhumerus -65.8607 84.0703 -144.454
rradius 86.8642
rwrist -2.69037
rhand -18.8536 -12.8559
rfingers 7.12502
rthumb 7.44648 -42.7049
lclavicle 9.52621e-014 1.63003e-014
lhumerus -74.5034 -32.6987 107.961
lradius 102.226
lwrist 0.0738107
lhand -39.7208 34.8776
lfingers 7.12502
lthumb -12.6987 64.4715
rfemur -27.6549 1.83948 25.2807
rtibia 58.442
rfoot -28.4285 -1.65787
rtoes 8.65068
lfemur -26.0461 -4.78713 -25.4402
ltibia 54.5705
lfoot -27.1552 9.00092
ltoes 3.17669
330
root -7.57982 16.036 -23.8069 3.35407 1.16064 0.0892103
lowerback 5.98852 5.73748 -2.76967
upperback -3.24562 7.39704 -0.635975
thorax -7.01239 3.74691 -0.029049
lowerneck -4.50361 -7.74306 -8.81822
upperneck 13.4803 -10.5008 6.18894
head 5.59985 -5.19361 2.65494
rclavicle -2.09601e-014 6.16232e-015
rhumerus -66.2302 84.0394 -144.799
rradius 86.8707
rwrist -2.71033
rhand -18.7052 -12.7732
rfingers 7.12502
rthumb 7.58967 -42.617
lclavicle -2.09601e-014 6.16232e-015
lhumerus -74.5293 -32.6354 107.954
lradius 102.184
lwrist -0.128861
lhand -39.7462 34.8834
lfingers 7.12502
lthumb -12.7231 64.4758
rfemur -27.6843 1.83682 25.2686
rtibia 58.5033
rfoot -28.5019 -1.6229
rtoes 8.62232
lfemur -26.0697 -4.72932 -25.4532
ltibia 54.6199
lfoot -27.2082 9.01196
ltoes 3.16546
331
root -7.57746 16.0327 -23.8035 3.37609 1.14083 0.129173
lowerback 5.94191 5.74341 -2.80215
upperback -3.24337 7.40379 -0.635124
thorax -6.98789 3.75196 -0.00627532
lowerneck -4.44805 -7.73686 -8.82778
upperneck 13.4382 -10.4908 6.16844
head 5.57597 -5.19169 2.65368
rclavicle 8.76671e-015 -1.45113e-014
rhumerus -66.6396 84.0634 -145.176
rradius 86.9033
rwrist -2.79219
rhand -18.5698 -12.6786
rfingers 7.12502
rthumb 7.72037 -42.5177
lclavicle 8.76671e-015 -1.45113e-014
lhumerus -74.5693 -32.5815 107.957
lradius 102.163
lwrist -0.268199
lhand -39.7017 34.751
lfingers 7.12502
lthumb -12.6802 64.3461
rfemur -27.7313 1.81589 25.215
rtibia 58.5735
rfoot -28.5621 -1.59769
rtoes 8.51421
lfemur -26.099 -4.68979 -25.5062
ltibia 54.6633
lfoot -27.226 9.01967
ltoes 3.05751
332
root -7.57562 16.0291 -23.8 3.38743 1.10459 0.147232
lowerback 5.92036 5.76455 -2.8103
upperback -3.24304 7.43198 -0.637509
thorax -6.97685 3.76623 -0.00559076
lowerneck -4.41956 -7.74104 -8.76539
upperneck 13.4175 -10.4905 6.07886
head 5.5566 -5.1946 2.61766
rclavicle -3.16347e-015 1.15295e-014
rhumerus -66.7222 84.0553 -145.225
rradius 86.9331
rwrist -2.82304
rhand -18.4899 -12.5525
rfingers 7.12502
rthumb 7.79747 -42.3887
lclavicle -3.16347e-015 1.15295e-014
lhumerus -74.6074 -32.5744 107.973
lradius 102.134
lwrist -0.380157
lhand -39.6507 34.4598
lfingers 7.12502
lthumb -12.6311 64.0579
rfemur -27.7694 1.81976 25.1886
rtibia 58.6415
rfoot -28.6207 -1.58114
rtoes 8.51474
lfemur -26.1188 -4.6386 -25.5305
ltibia 54.7073
lfoot -27.2902 8.96204
ltoes 3.20618
333
root -7.57329 16.025 -23.7967 3.3972 1.07608 0.153566
lowerback 5.89864 5.77534 -2.80526
upperback -3.23422 7.44821 -0.629483
thorax -6.95593 3.77425 0.000916913
lowerneck -4.43886 -7.72431 -8.76261
upperneck 13.424 -10.4629 6.05262
head 5.55826 -5.18212 2.61056
rclavicle 6.85916e-014 -3.37934e-015
rhumerus -66.8408 84.0925 -145.312
rradius 86.9568
rwrist -2.82674
rhand -18.4099 -12.452
rfingers 7.12502
rthumb 7.87476 -42.2853
lclavicle 6.85916e-014 -3.37934e-015
lhumerus -74.6314 -32.5554 107.981
lradius 102.14
lwrist -0.39812
lhand -39.6763 34.4392
lfingers 7.12502
lthumb -12.6557 64.0358
rfemur -27.8 1.81261 25.17
rtibia 58.7128
rfoot -28.6582 -1.58248
rtoes 8.60619
lfemur -26.1374 -4.59447 -25.5487
ltibia 54.7556
lfoot -27.3238 8.98413
ltoes 3.20578
334
root -7.57125 16.0206 -23.7941 3.39929 1.03364 0.185698
lowerback 5.87894 5.78482 -2.82905
upperback -3.21717 7.45951 -0.630538
thorax -6.92987 3.78081 0.0145861
lowerneck -4.45485 -7.70155 -8.75234
upperneck 13.4396 -10.4314 6.04775
head 5.56258 -5.16621 2.6093
rclavicle 6.42703e-014 -7.35503e-015
rhumerus -66.8451 84.166 -145.317
rradius 86.9574
rwrist -2.90013
rhand -18.3728 -12.3973
rfingers 7.12502
rthumb 7.9105 -42.2293
lclavicle 6.42703e-014 -7.35503e-015
lhumerus -74.6206 -32.5707 107.985
lradius 102.123
lwrist -0.360504
lhand -39.6691 34.2343
lfingers 7.12502
lthumb -12.6488 63.8313
rfemur -27.8375 1.82788 25.13
rtibia 58.7889
rfoot -28.7054 -1.59218
rtoes 8.53082
lfemur -26.1514 -4.53278 -25.5906
ltibia 54.8029
lfoot -27.3718 8.96441
ltoes 3.16583
335
root -7.56975 16.0159 -23.791 3.38732 0.973998 0.185281
lowerback 5.90833 5.80559 -2.82375
upperback -3.22384 7.48674 -0.630191
thorax -6.95408 3.79384 0.00480925
lowerneck -4.43532 -7.67988 -8.74808
upperneck 13.4307 -10.4072 6.07428
head 5.55568 -5.15303 2.61985
rclavicle -1.08772e-014 -2.18663e-015
rhumerus -66.7748 84.1399 -145.256
rradius 86.951
rwrist -2.94018
rhand -18.4999 -12.4569
rfingers 7.12502
rthumb 7.7879 -42.2935
lclavicle -1.08772e-014 -2.18663e-015
lhumerus -74.6865 -32.5894 108.009
lradius 102.164
lwrist -0.270303
lhand -39.5725 34.2254
lfingers 7.12502
lthumb -12.5557 63.8282
rfemur -27.854 1.8687 25.1251
rtibia 58.858
rfoot -28.759 -1.59513
rtoes 8.45119
lfemur -26.1548 -4.45983 -25.5987
ltibia 54.8624
lfoot -27.4141 8.95658
ltoes 3.26695
336
root -7.56837 16.0114 -23.7887 3.3838 0.929044 0.212093
lowerback 5.90221 5.81546 -2.84944
upperback -3.21641 7.49777 -0.632886
thorax -6.94611 3.8003 0.0156249
lowerneck -4.41403 -7.65954 -8.73647
upperneck 13.4247 -10.3845 6.09199
head 5.54867 -5.14075 2.62644
rclavicle 3.00646e-014 1.59028e-015
rhumerus -66.6348 84.1868 -145.112
rradius 86.9621
rwrist -2.9653
rhand -18.4008 -12.372
rfingers 7.12502
rthumb 7.88347 -42.205
lclavicle 3.00646e-014 1.59028e-015
lhumerus -74.7264 -32.6117 108.031
lradius 102.21
lwrist -0.178192
lhand -39.5973 34.2243
lfingers 7.12502
lthumb -12.5796 63.8256
rfemur -27.8728 1.90484 25.0926
rtibia 58.932
rfoot -28.8366 -1.60792
rtoes 8.40745
lfemur -26.1675 -4.4088 -25.632
ltibia 54.9171
lfoot -27.4621 8.9554
ltoes 3.22557
337
root -7.56683 16.0071 -23.7856 3.38661 0.887194 0.217267
lowerback 5.8756 5.80481 -2.85658
upperback -3.20456 7.48491 -0.616954
thorax -6.92095 3.79477 0.0413564
lowerneck -4.39814 -7.62869 -8.77298
upperneck 13.407 -10.3469 6.14357
head 5.5421 -5.12145 2.65215
rclavicle 6.85e-014 1.76918e-014
rhumerus -66.8769 84.2177 -145.382
rradius 86.9386
rwrist -2.99483
rhand -18.3135 -12.3765
rfingers 7.12502
rthumb 7.96777 -42.2063
lclavicle 6.85e-014 1.76918e-014
lhumerus -74.7142 -32.5768 108.023
lradius 102.236
lwrist -0.105172
lhand -39.5939 34.2798
lfingers 7.12502
lthumb -12.5763 63.8812
rfemur -27.8985 1.92805 25.0839
rtibia 58.9956
rfoot -28.8551 -1.62194
rtoes 8.43627
lfemur -26.1907 -4.36911 -25.6437
ltibia 54.9814
lfoot -27.5033 8.95787
ltoes 3.22106
